<mxfile host="app.diagrams.net" modified="2022-02-19T12:21:55.895Z" agent="5.0 (Windows NT 10.0; Win64; x64) AppleWebKit/537.36 (KHTML, like Gecko) Chrome/98.0.4758.102 Safari/537.36" etag="N1dvMQuYPBsrSY0ecRbv" version="16.6.1" type="github">
  <diagram id="_p4c0ArNnSdwj9fh2cJ5" name="Page-1">
    <mxGraphModel dx="1210" dy="607" grid="0" gridSize="10" guides="1" tooltips="1" connect="1" arrows="1" fold="1" page="1" pageScale="1" pageWidth="1200" pageHeight="1600" background="#FFFFCC" math="0" shadow="0">
      <root>
        <mxCell id="0" />
        <mxCell id="1" parent="0" />
        <mxCell id="O7kcPsbJT0hb_IhBbvmR-5" style="edgeStyle=orthogonalEdgeStyle;rounded=0;orthogonalLoop=1;jettySize=auto;html=1;exitX=0.5;exitY=1;exitDx=0;exitDy=0;exitPerimeter=0;entryX=0.5;entryY=0;entryDx=0;entryDy=0;" edge="1" parent="1" source="O7kcPsbJT0hb_IhBbvmR-1" target="O7kcPsbJT0hb_IhBbvmR-2">
          <mxGeometry relative="1" as="geometry" />
        </mxCell>
        <mxCell id="O7kcPsbJT0hb_IhBbvmR-1" value="Start" style="strokeWidth=2;html=1;shape=mxgraph.flowchart.start_1;whiteSpace=wrap;" vertex="1" parent="1">
          <mxGeometry x="331" y="321" width="100" height="60" as="geometry" />
        </mxCell>
        <mxCell id="O7kcPsbJT0hb_IhBbvmR-6" style="edgeStyle=orthogonalEdgeStyle;rounded=0;orthogonalLoop=1;jettySize=auto;html=1;exitX=0.5;exitY=1;exitDx=0;exitDy=0;entryX=0.5;entryY=0;entryDx=0;entryDy=0;entryPerimeter=0;" edge="1" parent="1" source="O7kcPsbJT0hb_IhBbvmR-2" target="O7kcPsbJT0hb_IhBbvmR-3">
          <mxGeometry relative="1" as="geometry" />
        </mxCell>
        <mxCell id="O7kcPsbJT0hb_IhBbvmR-2" value="Read a, b, c" style="shape=parallelogram;html=1;strokeWidth=2;perimeter=parallelogramPerimeter;whiteSpace=wrap;rounded=1;arcSize=12;size=0.23;" vertex="1" parent="1">
          <mxGeometry x="312" y="417" width="138" height="36" as="geometry" />
        </mxCell>
        <mxCell id="O7kcPsbJT0hb_IhBbvmR-8" style="edgeStyle=orthogonalEdgeStyle;rounded=0;orthogonalLoop=1;jettySize=auto;html=1;exitX=0.5;exitY=1;exitDx=0;exitDy=0;exitPerimeter=0;entryX=0.431;entryY=0;entryDx=0;entryDy=0;entryPerimeter=0;" edge="1" parent="1" source="O7kcPsbJT0hb_IhBbvmR-3" target="O7kcPsbJT0hb_IhBbvmR-4">
          <mxGeometry relative="1" as="geometry" />
        </mxCell>
        <mxCell id="O7kcPsbJT0hb_IhBbvmR-13" style="edgeStyle=orthogonalEdgeStyle;rounded=0;orthogonalLoop=1;jettySize=auto;html=1;exitX=1;exitY=0.5;exitDx=0;exitDy=0;exitPerimeter=0;" edge="1" parent="1" source="O7kcPsbJT0hb_IhBbvmR-3">
          <mxGeometry relative="1" as="geometry">
            <mxPoint x="523" y="568" as="targetPoint" />
            <Array as="points">
              <mxPoint x="523" y="534" />
            </Array>
          </mxGeometry>
        </mxCell>
        <mxCell id="O7kcPsbJT0hb_IhBbvmR-14" style="edgeStyle=orthogonalEdgeStyle;rounded=0;orthogonalLoop=1;jettySize=auto;html=1;exitX=0;exitY=0.5;exitDx=0;exitDy=0;exitPerimeter=0;entryX=0.5;entryY=0;entryDx=0;entryDy=0;entryPerimeter=0;" edge="1" parent="1" source="O7kcPsbJT0hb_IhBbvmR-3" target="O7kcPsbJT0hb_IhBbvmR-12">
          <mxGeometry relative="1" as="geometry" />
        </mxCell>
        <mxCell id="O7kcPsbJT0hb_IhBbvmR-3" value="Is a&amp;lt;b&amp;lt;c" style="strokeWidth=2;html=1;shape=mxgraph.flowchart.decision;whiteSpace=wrap;" vertex="1" parent="1">
          <mxGeometry x="329" y="484" width="100" height="100" as="geometry" />
        </mxCell>
        <mxCell id="O7kcPsbJT0hb_IhBbvmR-4" value="Print a, b, c" style="shape=parallelogram;html=1;strokeWidth=2;perimeter=parallelogramPerimeter;whiteSpace=wrap;rounded=1;arcSize=12;size=0.23;" vertex="1" parent="1">
          <mxGeometry x="310" y="741" width="160" height="26" as="geometry" />
        </mxCell>
        <mxCell id="O7kcPsbJT0hb_IhBbvmR-9" value="Yes" style="text;html=1;align=center;verticalAlign=middle;resizable=0;points=[];autosize=1;strokeColor=none;fillColor=none;" vertex="1" parent="1">
          <mxGeometry x="385" y="584" width="30" height="18" as="geometry" />
        </mxCell>
        <mxCell id="O7kcPsbJT0hb_IhBbvmR-18" style="edgeStyle=orthogonalEdgeStyle;rounded=0;orthogonalLoop=1;jettySize=auto;html=1;exitX=0.5;exitY=1;exitDx=0;exitDy=0;exitPerimeter=0;entryX=0.379;entryY=0.034;entryDx=0;entryDy=0;entryPerimeter=0;" edge="1" parent="1" source="O7kcPsbJT0hb_IhBbvmR-11" target="O7kcPsbJT0hb_IhBbvmR-17">
          <mxGeometry relative="1" as="geometry" />
        </mxCell>
        <mxCell id="O7kcPsbJT0hb_IhBbvmR-25" style="edgeStyle=orthogonalEdgeStyle;rounded=0;orthogonalLoop=1;jettySize=auto;html=1;exitX=1;exitY=0.5;exitDx=0;exitDy=0;exitPerimeter=0;entryX=0.5;entryY=0;entryDx=0;entryDy=0;entryPerimeter=0;" edge="1" parent="1" source="O7kcPsbJT0hb_IhBbvmR-11" target="O7kcPsbJT0hb_IhBbvmR-24">
          <mxGeometry relative="1" as="geometry" />
        </mxCell>
        <mxCell id="O7kcPsbJT0hb_IhBbvmR-11" value="&lt;span&gt;Is b&amp;lt;a&amp;lt;c&lt;/span&gt;" style="strokeWidth=2;html=1;shape=mxgraph.flowchart.decision;whiteSpace=wrap;" vertex="1" parent="1">
          <mxGeometry x="475" y="567" width="100" height="100" as="geometry" />
        </mxCell>
        <mxCell id="O7kcPsbJT0hb_IhBbvmR-21" style="edgeStyle=orthogonalEdgeStyle;rounded=0;orthogonalLoop=1;jettySize=auto;html=1;exitX=0.5;exitY=1;exitDx=0;exitDy=0;exitPerimeter=0;entryX=0.671;entryY=0.088;entryDx=0;entryDy=0;entryPerimeter=0;" edge="1" parent="1" source="O7kcPsbJT0hb_IhBbvmR-12" target="O7kcPsbJT0hb_IhBbvmR-20">
          <mxGeometry relative="1" as="geometry" />
        </mxCell>
        <mxCell id="O7kcPsbJT0hb_IhBbvmR-32" style="edgeStyle=orthogonalEdgeStyle;rounded=0;orthogonalLoop=1;jettySize=auto;html=1;exitX=0;exitY=0.5;exitDx=0;exitDy=0;exitPerimeter=0;" edge="1" parent="1" source="O7kcPsbJT0hb_IhBbvmR-12">
          <mxGeometry relative="1" as="geometry">
            <mxPoint x="96" y="667" as="targetPoint" />
            <Array as="points">
              <mxPoint x="96" y="638" />
              <mxPoint x="96" y="667" />
            </Array>
          </mxGeometry>
        </mxCell>
        <mxCell id="O7kcPsbJT0hb_IhBbvmR-12" value="&lt;span&gt;Is b&amp;lt;c&amp;lt;a&lt;/span&gt;" style="strokeWidth=2;html=1;shape=mxgraph.flowchart.decision;whiteSpace=wrap;" vertex="1" parent="1">
          <mxGeometry x="212" y="588" width="100" height="100" as="geometry" />
        </mxCell>
        <mxCell id="O7kcPsbJT0hb_IhBbvmR-15" value="No" style="text;html=1;align=center;verticalAlign=middle;resizable=0;points=[];autosize=1;strokeColor=none;fillColor=none;" vertex="1" parent="1">
          <mxGeometry x="456" y="518" width="25" height="18" as="geometry" />
        </mxCell>
        <mxCell id="O7kcPsbJT0hb_IhBbvmR-16" value="No" style="text;html=1;align=center;verticalAlign=middle;resizable=0;points=[];autosize=1;strokeColor=none;fillColor=none;" vertex="1" parent="1">
          <mxGeometry x="287" y="512" width="25" height="18" as="geometry" />
        </mxCell>
        <mxCell id="O7kcPsbJT0hb_IhBbvmR-43" style="edgeStyle=orthogonalEdgeStyle;rounded=0;orthogonalLoop=1;jettySize=auto;html=1;exitX=0.5;exitY=1;exitDx=0;exitDy=0;entryX=0.5;entryY=0;entryDx=0;entryDy=0;entryPerimeter=0;" edge="1" parent="1" source="O7kcPsbJT0hb_IhBbvmR-17" target="O7kcPsbJT0hb_IhBbvmR-38">
          <mxGeometry relative="1" as="geometry" />
        </mxCell>
        <mxCell id="O7kcPsbJT0hb_IhBbvmR-17" value="&lt;span&gt;Print b, a, c&lt;/span&gt;" style="shape=parallelogram;html=1;strokeWidth=2;perimeter=parallelogramPerimeter;whiteSpace=wrap;rounded=1;arcSize=12;size=0.23;" vertex="1" parent="1">
          <mxGeometry x="460" y="741" width="169" height="29" as="geometry" />
        </mxCell>
        <mxCell id="O7kcPsbJT0hb_IhBbvmR-19" value="Yes" style="text;html=1;align=center;verticalAlign=middle;resizable=0;points=[];autosize=1;strokeColor=none;fillColor=none;" vertex="1" parent="1">
          <mxGeometry x="521" y="678" width="30" height="18" as="geometry" />
        </mxCell>
        <mxCell id="O7kcPsbJT0hb_IhBbvmR-20" value="&lt;span&gt;Print b, c, a&lt;/span&gt;" style="shape=parallelogram;html=1;strokeWidth=2;perimeter=parallelogramPerimeter;whiteSpace=wrap;rounded=1;arcSize=12;size=0.23;" vertex="1" parent="1">
          <mxGeometry x="160" y="737" width="152" height="34" as="geometry" />
        </mxCell>
        <mxCell id="O7kcPsbJT0hb_IhBbvmR-22" value="Yes" style="text;html=1;align=center;verticalAlign=middle;resizable=0;points=[];autosize=1;strokeColor=none;fillColor=none;" vertex="1" parent="1">
          <mxGeometry x="264" y="692" width="30" height="18" as="geometry" />
        </mxCell>
        <mxCell id="O7kcPsbJT0hb_IhBbvmR-28" style="edgeStyle=orthogonalEdgeStyle;rounded=0;orthogonalLoop=1;jettySize=auto;html=1;exitX=0.5;exitY=1;exitDx=0;exitDy=0;exitPerimeter=0;entryX=0.415;entryY=0;entryDx=0;entryDy=0;entryPerimeter=0;" edge="1" parent="1" source="O7kcPsbJT0hb_IhBbvmR-24" target="O7kcPsbJT0hb_IhBbvmR-27">
          <mxGeometry relative="1" as="geometry" />
        </mxCell>
        <mxCell id="O7kcPsbJT0hb_IhBbvmR-24" value="&lt;span&gt;Is c&amp;lt;b&amp;lt;a&lt;/span&gt;" style="strokeWidth=2;html=1;shape=mxgraph.flowchart.decision;whiteSpace=wrap;" vertex="1" parent="1">
          <mxGeometry x="634" y="647" width="100" height="100" as="geometry" />
        </mxCell>
        <mxCell id="O7kcPsbJT0hb_IhBbvmR-26" value="No" style="text;html=1;align=center;verticalAlign=middle;resizable=0;points=[];autosize=1;strokeColor=none;fillColor=none;" vertex="1" parent="1">
          <mxGeometry x="615" y="595" width="25" height="18" as="geometry" />
        </mxCell>
        <mxCell id="O7kcPsbJT0hb_IhBbvmR-27" value="&lt;span&gt;Print c, b, a&lt;/span&gt;" style="shape=parallelogram;html=1;strokeWidth=2;perimeter=parallelogramPerimeter;whiteSpace=wrap;rounded=1;arcSize=12;size=0.23;" vertex="1" parent="1">
          <mxGeometry x="626" y="803" width="141" height="27" as="geometry" />
        </mxCell>
        <mxCell id="O7kcPsbJT0hb_IhBbvmR-29" value="Yes" style="text;html=1;align=center;verticalAlign=middle;resizable=0;points=[];autosize=1;strokeColor=none;fillColor=none;" vertex="1" parent="1">
          <mxGeometry x="693" y="744" width="30" height="18" as="geometry" />
        </mxCell>
        <mxCell id="O7kcPsbJT0hb_IhBbvmR-35" style="edgeStyle=orthogonalEdgeStyle;rounded=0;orthogonalLoop=1;jettySize=auto;html=1;exitX=0.5;exitY=1;exitDx=0;exitDy=0;exitPerimeter=0;" edge="1" parent="1" source="O7kcPsbJT0hb_IhBbvmR-30">
          <mxGeometry relative="1" as="geometry">
            <mxPoint x="95" y="799" as="targetPoint" />
          </mxGeometry>
        </mxCell>
        <mxCell id="O7kcPsbJT0hb_IhBbvmR-30" value="&lt;span&gt;Is c&amp;lt;a&amp;lt;b&lt;/span&gt;" style="strokeWidth=2;html=1;shape=mxgraph.flowchart.decision;whiteSpace=wrap;" vertex="1" parent="1">
          <mxGeometry x="47" y="667" width="100" height="100" as="geometry" />
        </mxCell>
        <mxCell id="O7kcPsbJT0hb_IhBbvmR-33" value="No" style="text;html=1;align=center;verticalAlign=middle;resizable=0;points=[];autosize=1;strokeColor=none;fillColor=none;" vertex="1" parent="1">
          <mxGeometry x="149" y="620" width="25" height="18" as="geometry" />
        </mxCell>
        <mxCell id="O7kcPsbJT0hb_IhBbvmR-34" value="&lt;span&gt;Print c, a, b&lt;/span&gt;" style="shape=parallelogram;html=1;strokeWidth=2;perimeter=parallelogramPerimeter;whiteSpace=wrap;rounded=1;arcSize=12;size=0.23;" vertex="1" parent="1">
          <mxGeometry x="37" y="800" width="145" height="24" as="geometry" />
        </mxCell>
        <mxCell id="O7kcPsbJT0hb_IhBbvmR-37" value="Yes" style="text;html=1;align=center;verticalAlign=middle;resizable=0;points=[];autosize=1;strokeColor=none;fillColor=none;" vertex="1" parent="1">
          <mxGeometry x="90" y="767" width="30" height="18" as="geometry" />
        </mxCell>
        <mxCell id="O7kcPsbJT0hb_IhBbvmR-38" value="END" style="strokeWidth=2;html=1;shape=mxgraph.flowchart.start_1;whiteSpace=wrap;" vertex="1" parent="1">
          <mxGeometry x="310" y="868" width="100" height="60" as="geometry" />
        </mxCell>
        <mxCell id="O7kcPsbJT0hb_IhBbvmR-46" value="" style="endArrow=none;html=1;rounded=0;entryX=0.319;entryY=1;entryDx=0;entryDy=0;entryPerimeter=0;" edge="1" parent="1" target="O7kcPsbJT0hb_IhBbvmR-4">
          <mxGeometry width="50" height="50" relative="1" as="geometry">
            <mxPoint x="361" y="826" as="sourcePoint" />
            <mxPoint x="379" y="767" as="targetPoint" />
            <Array as="points">
              <mxPoint x="361" y="807" />
            </Array>
          </mxGeometry>
        </mxCell>
        <mxCell id="O7kcPsbJT0hb_IhBbvmR-48" value="" style="endArrow=none;html=1;rounded=0;entryX=0;entryY=0.5;entryDx=0;entryDy=0;" edge="1" parent="1" target="O7kcPsbJT0hb_IhBbvmR-27">
          <mxGeometry width="50" height="50" relative="1" as="geometry">
            <mxPoint x="545" y="817" as="sourcePoint" />
            <mxPoint x="648" y="808" as="targetPoint" />
          </mxGeometry>
        </mxCell>
        <mxCell id="O7kcPsbJT0hb_IhBbvmR-49" value="" style="endArrow=none;html=1;rounded=0;entryX=0.5;entryY=1;entryDx=0;entryDy=0;" edge="1" parent="1" target="O7kcPsbJT0hb_IhBbvmR-20">
          <mxGeometry width="50" height="50" relative="1" as="geometry">
            <mxPoint x="361" y="821" as="sourcePoint" />
            <mxPoint x="239" y="771" as="targetPoint" />
            <Array as="points">
              <mxPoint x="236" y="821" />
            </Array>
          </mxGeometry>
        </mxCell>
        <mxCell id="O7kcPsbJT0hb_IhBbvmR-52" value="" style="endArrow=none;html=1;rounded=0;" edge="1" parent="1">
          <mxGeometry width="50" height="50" relative="1" as="geometry">
            <mxPoint x="157" y="820" as="sourcePoint" />
            <mxPoint x="239" y="820" as="targetPoint" />
          </mxGeometry>
        </mxCell>
      </root>
    </mxGraphModel>
  </diagram>
</mxfile>
